# xmcd CD database file
# Copyright (C) 1993-1998 Ti Kan
#
# Track frame offsets:
#	150
#	12797
#	32130
#	46537
#	67110
#	79172
#	93320
#	103937
#	110955
#	127850
#	150695
#	164120
#	182750
#	191755
#	203122
#	216512
#	231515
#	244807
#
# Disc length: 3465 seconds
#
# Revision: 1
# Processed by: cddbd v1.4b41PL1 Copyright (c) Steve Scherf et al.
# Submitted via: CDValet v3.31 - Copyright (c) 1997 Greg Leichner
#
DISCID=060d8712
DTITLE=Fleetwood Mac - The Best Of The Original Fleetwood Mac
DYEAR=1900
DGENRE=
TTITLE0=Black Magic Woman
TTITLE1=I've Lost My Baby
TTITLE2=One Sunny Day
TTITLE3=Without You
TTITLE4=Coming Home
TTITLE5=Albatross
TTITLE6=Stop Messin' Around
TTITLE7=Jig Saw Puzzle Blues
TTITLE8=Doctor Brown
TTITLE9=Love That Burns
TTITLE10=My Heart Beat Like A Hammer
TTITLE11=Merry Go Round
TTITLE12=Hellhound On My Trail
TTITLE13=The World Keep On Turning
TTITLE14=If I Loved Another Woman
TTITLE15=Cold Black Night
TTITLE16=Shake Your Moneymaker
TTITLE17=No Place To Go
EXTD=
EXTT0=
EXTT1=
EXTT2=
EXTT3=
EXTT4=
EXTT5=
EXTT6=
EXTT7=
EXTT8=
EXTT9=
EXTT10=
EXTT11=
EXTT12=
EXTT13=
EXTT14=
EXTT15=
EXTT16=
EXTT17=
PLAYORDER=
